<svg width="90" height="90" viewBox="0 0 90 90" fill="none" xmlns="http://www.w3.org/2000/svg">
<path d="M44.9998 9C41.4194 9 37.9856 10.4223 35.4538 12.9541C32.9221 15.4858 31.4998 18.9196 31.4998 22.5C31.4998 26.0804 32.9221 29.5142 35.4538 32.0459C37.9856 34.5777 41.4194 36 44.9998 36C48.5802 36 52.014 34.5777 54.5457 32.0459C57.0775 29.5142 58.4998 26.0804 58.4998 22.5C58.4998 18.9196 57.0775 15.4858 54.5457 12.9541C52.014 10.4223 48.5802 9 44.9998 9ZM22.7383 44.982C22.5853 45.714 22.5088 46.47 22.5088 47.25V63C22.5058 66.267 23.2158 69.4953 24.5892 72.4596C25.9625 75.4239 27.9662 78.0529 30.4603 80.163L29.6908 80.388C27.4074 81.0005 25.0256 81.1572 22.6816 80.8491C20.3376 80.541 18.0773 79.7742 16.0297 78.5925C13.9821 77.4107 12.1874 75.8372 10.748 73.9617C9.30858 72.0862 8.25275 69.9456 7.64078 67.662L4.72928 56.7945C4.49996 55.9382 4.44155 55.0451 4.55739 54.1663C4.67323 53.2874 4.96104 52.44 5.4044 51.6724C5.84776 50.9048 6.43798 50.232 7.14135 49.6925C7.84472 49.153 8.64748 48.7573 9.50378 48.528L22.7383 44.982ZM59.5573 80.163C62.0514 78.0529 64.055 75.4239 65.4284 72.4596C66.8017 69.4953 67.5117 66.267 67.5088 63V47.25C67.5058 46.47 67.4308 45.714 67.2838 44.982L80.5138 48.528C82.2423 48.992 83.7158 50.1235 84.6103 51.6736C85.5048 53.2238 85.7471 55.0658 85.2838 56.7945L82.3723 67.662C81.7428 70.0102 80.6441 72.2066 79.1425 74.1186C77.641 76.0306 75.7677 77.6187 73.6356 78.7869C71.5035 79.9551 69.1569 80.6793 66.7373 80.9158C64.3177 81.1523 61.8752 80.8962 59.5573 80.163ZM74.2498 18C71.2661 18 68.4046 19.1853 66.2948 21.295C64.185 23.4048 62.9998 26.2663 62.9998 29.25C62.9998 32.2337 64.185 35.0952 66.2948 37.205C68.4046 39.3147 71.2661 40.5 74.2498 40.5C77.2335 40.5 80.0949 39.3147 82.2047 37.205C84.3145 35.0952 85.4998 32.2337 85.4998 29.25C85.4998 26.2663 84.3145 23.4048 82.2047 21.295C80.0949 19.1853 77.2335 18 74.2498 18ZM15.7498 18C12.7661 18 9.90461 19.1853 7.79483 21.295C5.68504 23.4048 4.49978 26.2663 4.49978 29.25C4.49978 32.2337 5.68504 35.0952 7.79483 37.205C9.90461 39.3147 12.7661 40.5 15.7498 40.5C18.7335 40.5 21.5949 39.3147 23.7047 37.205C25.8145 35.0952 26.9998 32.2337 26.9998 29.25C26.9998 26.2663 25.8145 23.4048 23.7047 21.295C21.5949 19.1853 18.7335 18 15.7498 18ZM33.7498 40.5C31.9596 40.5 30.2427 41.2112 28.9768 42.477C27.7109 43.7429 26.9998 45.4598 26.9998 47.25V63C26.9998 67.7739 28.8962 72.3523 32.2719 75.7279C35.6475 79.1036 40.2259 81 44.9998 81C49.7737 81 54.352 79.1036 57.7277 75.7279C61.1034 72.3523 62.9998 67.7739 62.9998 63V47.25C62.9998 45.4598 62.2886 43.7429 61.0228 42.477C59.7569 41.2112 58.04 40.5 56.2498 40.5H33.7498Z" fill="white"/>
</svg>
