<svg width="90" height="91" viewBox="0 0 90 91" fill="none" xmlns="http://www.w3.org/2000/svg">
<path d="M15 75.5H75V83H15V75.5ZM78.75 19.25C77.7554 19.25 76.8016 19.6451 76.0983 20.3484C75.3951 21.0516 75 22.0054 75 23C75.0006 23.4264 75.0821 23.8489 75.24 24.245C75.3944 24.6281 75.6055 24.9858 75.8663 25.3062L67.9163 31.6513L59.9775 38L53.4 26.4762L46.83 14.9563C47.3932 14.6356 47.8685 14.1809 48.2138 13.6325C48.5648 13.0674 48.7505 12.4153 48.75 11.75C48.75 10.7554 48.3549 9.80161 47.6517 9.09835C46.9484 8.39509 45.9946 8 45 8C44.0054 8 43.0516 8.39509 42.3484 9.09835C41.6451 9.80161 41.25 10.7554 41.25 11.75C41.2495 12.4153 41.4352 13.0674 41.7863 13.6325C42.1315 14.1809 42.6068 14.6356 43.17 14.9563L36.5888 26.4762L30.0075 38L22.0725 31.655L14.1338 25.3062C14.3945 24.9858 14.6056 24.6281 14.76 24.245C14.9179 23.8489 14.9994 23.4264 15 23C15 22.2583 14.7801 21.5333 14.368 20.9166C13.956 20.2999 13.3703 19.8193 12.6851 19.5355C11.9998 19.2516 11.2458 19.1774 10.5184 19.3221C9.79098 19.4667 9.1228 19.8239 8.59835 20.3484C8.0739 20.8728 7.71675 21.541 7.57206 22.2684C7.42736 22.9958 7.50162 23.7498 7.78545 24.4351C8.06928 25.1203 8.54993 25.706 9.16661 26.118C9.7833 26.5301 10.5083 26.75 11.25 26.75C11.302 26.7466 11.3536 26.7378 11.4038 26.7238C11.4535 26.7059 11.5051 26.6933 11.5575 26.6862L13.2788 47.345L15 68H75L76.7213 47.345L78.4425 26.6862C78.4937 26.6935 78.5439 26.7061 78.5925 26.7238C78.6439 26.7381 78.6967 26.7469 78.75 26.75C79.7446 26.75 80.6984 26.3549 81.4017 25.6516C82.1049 24.9484 82.5 23.9946 82.5 23C82.5 22.0054 82.1049 21.0516 81.4017 20.3484C80.6984 19.6451 79.7446 19.25 78.75 19.25Z" fill="#E8E8E8"/>
</svg>
