<svg width="90" height="90" viewBox="0 0 90 90" fill="none" xmlns="http://www.w3.org/2000/svg">
<path d="M50.7438 75.0389V54.8516L68.109 64.8705C71.574 66.9437 73.0815 66.4535 75.3781 62.913L75.6803 62.4984C78.0154 58.9193 77.2231 57.0742 73.7581 55.1151L55.7533 44.7185L73.7211 34.8876C77.2247 32.9671 77.7133 31.196 75.6803 27.543L75.3781 27.0898C73.231 23.3998 71.4985 23.1362 68.0704 25.0568L50.7454 35.1143V14.9591C50.7454 10.8544 49.3504 9.72461 45.1317 9.72461H44.6801C40.4613 9.72461 39.0679 10.8544 39.0679 14.9607V35.1126L21.7397 25.0551C18.3503 23.0591 16.1662 23.1346 14.3195 27.0882L14.1315 27.5028C12.3235 31.3439 12.6256 32.89 16.1276 34.9246L34.0569 44.7169L16.052 55.1135C12.587 57.1096 11.9844 58.8051 14.1685 62.5337L14.3581 62.8728C16.4667 66.5644 18.2378 66.9405 21.7028 64.8689L39.0679 54.85V75.0373C39.0679 79.1435 40.4613 80.2734 44.6801 80.2734H45.1317C49.3504 80.2734 50.7438 79.1435 50.7438 75.0373" fill="white"/>
</svg>
