<svg width="90" height="90" viewBox="0 0 90 90" fill="none" xmlns="http://www.w3.org/2000/svg">
<path d="M45 4.40545C34.1747 15.2306 31.4701 23.3494 31.4701 28.7621C31.4701 34.1747 39.5877 36.881 45 36.881C50.4127 36.881 58.5299 34.1747 58.5299 28.7621C58.5299 23.3494 55.8251 15.2309 45 4.40545ZM23.3297 35.8812C21.7107 35.8622 19.6476 36.1378 16.875 36.881C18.8561 44.2747 21.1999 45.6297 23.5438 46.9828C25.8873 48.3362 29.584 47.3439 30.9375 44.9998C32.2907 42.6562 31.2984 38.9591 28.9547 37.606C27.4897 36.7604 26.0272 35.9128 23.3297 35.8812ZM66.6703 35.8812C63.9728 35.9128 62.5103 36.7601 61.0453 37.6061C58.7018 38.9591 57.7093 42.6563 59.0625 44.9998C60.4157 47.3435 64.1127 48.3362 66.4564 46.9827C68.8001 45.6297 71.1439 44.2747 73.125 36.881C70.3522 36.138 68.2893 35.8622 66.6703 35.8812ZM45 42.2919C39.0217 42.2919 34.1729 47.14 34.1729 53.1188C34.1729 59.0971 39.0215 63.9457 45 63.9457C50.9783 63.9457 55.8271 59.0977 55.8271 53.119C55.8271 47.1403 50.9783 42.2918 45 42.2918V42.2919ZM19.6822 52.8771C18.8024 52.8944 17.9443 53.115 17.1387 53.5802C12.4511 56.2868 6.77496 62.6878 2.8125 77.4754C17.6001 81.4375 25.9863 79.7202 30.6738 77.014C35.3614 74.3077 33.6438 65.9252 30.9375 61.2376C28.6963 57.3557 23.9198 52.7933 19.6822 52.8771ZM70.0762 52.8771C65.8997 52.965 61.2613 57.429 59.0625 61.2376C56.3562 65.9252 54.6386 74.3077 59.3262 77.014C64.0137 79.7203 72.3999 81.4377 87.1875 77.4754C83.2254 62.6877 77.5489 56.2868 72.8613 53.5801C71.9824 53.0728 71.0402 52.8569 70.0762 52.8771ZM45 69.3566C42.2937 69.3566 39.5895 72.061 39.5895 74.7672C39.5895 77.4737 39.5873 80.1818 45 85.5942C50.4127 80.1816 50.4105 77.4735 50.4105 74.7673C50.4105 72.0612 47.7063 69.3568 45 69.3568V69.3566Z" fill="white"/>
</svg>
